<svg width="498" height="143" viewBox="0 0 498 143" style="overflow: visible;"><g><g></g></g><g transform="translate(0 0)"><g><g transform="translate(0, 0)"><g><g><path d="M0,0 L0,47.67" stroke-width="1" stroke="#989898" stroke-dasharray="4 4"></path><path d="M45.27,0 L45.27,47.67" stroke-width="1" stroke="#989898" stroke-dasharray="4 4"></path><path d="M0,0 L45.27,0" stroke-width="1" stroke="#989898" stroke-dasharray="4 4"></path><path d="M0,47.67 L45.27,47.67" stroke-width="1" stroke="#989898" stroke-dasharray="4 4"></path></g></g><svg width="45.27" height="47.67" viewBox="0 0 45.27 47.67"><g transform="translate(1, 1)"><svg width="43.27" height="45.67" viewBox="0 0 43.27 45.67" class="svg-table left-top-empty" style="overflow: visible;"><g class="filled-area left-top-empty-filled-area-behind-table"><g class="paths-on-area paths-on-area-for-filled-area"></g></g><g class="left-top-empty-content-area" transform="translate(0 0)"><g class="left-top-empty-row-0"><g transform="translate(0, 0)" class="left-top-empty-cell-wrapper"><g><g></g></g><svg width="21.14" height="22.34" viewBox="0 0 21.14 22.34"><g transform="translate(1, 1)"><text x="10.57" y="11.17" text-anchor="middle" dominant-baseline="middle" fill="#000"></text></g></svg></g><g transform="translate(22.14, 0)" class="left-top-empty-cell-wrapper"><g><rect width="21.14" height="22.34" fill="#ffae00" stroke="#000" stroke-width="0"></rect></g><svg width="21.14" height="22.34" viewBox="0 0 21.14 22.34" style="pointer-events: none;"><g transform="translate(1, 1)"><g transform="translate(0,0.5999999999999996)" style="font-size: 20.083px; color: rgba(255, 117, 86, 0.663);"><svg stroke="currentColor" fill="currentColor" stroke-width="0" viewBox="0 0 496 512" height="1em" width="1em" xmlns="http://www.w3.org/2000/svg"><path d="M248 8C111 8 0 119 0 256s111 248 248 248 248-111 248-248S385 8 248 8zm80 168c17.7 0 32 14.3 32 32s-14.3 32-32 32-32-14.3-32-32 14.3-32 32-32zm-160 0c17.7 0 32 14.3 32 32s-14.3 32-32 32-32-14.3-32-32 14.3-32 32-32zm194.8 170.2C334.3 380.4 292.5 400 248 400s-86.3-19.6-114.8-53.8c-13.6-16.3 11-36.7 24.6-20.5 22.4 26.9 55.2 42.2 90.2 42.2s67.8-15.4 90.2-42.2c13.4-16.2 38.1 4.2 24.6 20.5z"></path></svg></g></g></svg></g></g><g class="left-top-empty-row-1"><g transform="translate(0, 23.34)" class="left-top-empty-cell-wrapper"><g><rect width="21.14" height="22.34" fill="#33a100" stroke="#000" stroke-width="0"></rect></g><svg width="21.14" height="22.34" viewBox="0 0 21.14 22.34"><g transform="translate(1, 1)"><text x="10.57" y="11.17" text-anchor="middle" dominant-baseline="middle" fill="#000"></text></g></svg></g><g transform="translate(22.14, 23.34)" class="left-top-empty-cell-wrapper"><g><rect width="21.14" height="22.34" fill="#009dff" stroke="#000" stroke-width="0"></rect></g><svg width="21.14" height="22.34" viewBox="0 0 21.14 22.34"><g transform="translate(1, 1)"><text x="10.57" y="11.17" text-anchor="middle" dominant-baseline="middle" fill="#51e0cf" font-size="10">!!</text></g></svg></g></g></g></svg></g></svg></g><g transform="translate(45.27, 0)"><g><rect width="45.27" height="47.67" fill="#009dff" stroke="#989898" stroke-width="1" stroke-dasharray="4 4"></rect></g><svg width="45.27" height="47.67" viewBox="0 0 45.27 47.67"><g transform="translate(1, 1)"><text x="22.64" y="23.84" text-anchor="middle" dominant-baseline="middle" fill="#51e0cf" font-size="10">!!</text></g></svg></g><g transform="translate(90.54, 0)"><g><g><path d="M0,0 L0,47.67" stroke-width="1" stroke="#989898" stroke-dasharray="4 4"></path><path d="M45.27,0 L45.27,47.67" stroke-width="1" stroke="#989898" stroke-dasharray="4 4"></path><path d="M0,0 L45.27,0" stroke-width="1" stroke="#989898" stroke-dasharray="4 4"></path><path d="M0,47.67 L45.27,47.67" stroke-width="1" stroke="#989898" stroke-dasharray="4 4"></path></g></g><svg width="45.27" height="47.67" viewBox="0 0 45.27 47.67"><g transform="translate(1, 1)"><svg width="43.27" height="45.67" viewBox="0 0 43.27 45.67" class="svg-table top-fill" style="overflow: visible;"><g class="filled-area top-fill-filled-area-behind-table"><g class="paths-on-area paths-on-area-for-filled-area"></g></g><g class="top-fill-content-area" transform="translate(0 0)"><g class="top-fill-row-0"><g transform="translate(0, 0)" class="top-fill-cell-wrapper"><g><rect width="43.27" height="22.34" fill="#009dff" stroke="#000" stroke-width="0"></rect></g><svg width="43.27" height="22.34" viewBox="0 0 43.27 22.34"><g transform="translate(1, 1)"><text x="21.64" y="11.17" text-anchor="middle" dominant-baseline="middle" fill="#51e0cf" font-size="10">!!</text></g></svg></g></g><g class="top-fill-row-1"><g transform="translate(0, 23.34)" class="top-fill-cell-wrapper"><g><g></g></g><svg width="43.27" height="22.34" viewBox="0 0 43.27 22.34"><g transform="translate(1, 1)"><text x="21.64" y="11.17" text-anchor="middle" dominant-baseline="middle" fill="#000"></text></g></svg></g></g></g></svg></g></svg></g><g transform="translate(135.81, 0)"><g><g><path d="M0,0 L0,47.67" stroke-width="1" stroke="#989898" stroke-dasharray="4 4"></path><path d="M45.27,0 L45.27,47.67" stroke-width="1" stroke="#989898" stroke-dasharray="4 4"></path><path d="M0,0 L45.27,0" stroke-width="1" stroke="#989898" stroke-dasharray="4 4"></path><path d="M0,47.67 L45.27,47.67" stroke-width="1" stroke="#989898" stroke-dasharray="4 4"></path></g></g><svg width="45.27" height="47.67" viewBox="0 0 45.27 47.67"><g transform="translate(1, 1)"><text x="22.64" y="23.84" text-anchor="middle" dominant-baseline="middle" fill="#000"></text></g></svg></g><g transform="translate(181.08, 0)"><g><rect width="45.27" height="47.67" fill="#009dff" stroke="#989898" stroke-width="1" stroke-dasharray="4 4"></rect></g><svg width="45.27" height="47.67" viewBox="0 0 45.27 47.67"><g transform="translate(1, 1)"><text x="22.64" y="23.84" text-anchor="middle" dominant-baseline="middle" fill="#51e0cf" font-size="10">!!</text></g></svg></g><g transform="translate(226.35, 0)"><g><g><path d="M0,0 L0,47.67" stroke-width="1" stroke="#989898" stroke-dasharray="4 4"></path><path d="M45.27,0 L45.27,47.67" stroke-width="1" stroke="#989898" stroke-dasharray="4 4"></path><path d="M0,0 L45.27,0" stroke-width="1" stroke="#989898" stroke-dasharray="4 4"></path><path d="M0,47.67 L45.27,47.67" stroke-width="1" stroke="#989898" stroke-dasharray="4 4"></path></g></g><svg width="45.27" height="47.67" viewBox="0 0 45.27 47.67"><g transform="translate(1, 1)"><text x="22.64" y="23.84" text-anchor="middle" dominant-baseline="middle" fill="#000"></text></g></svg></g><g transform="translate(271.62, 0)"><g><rect width="45.27" height="47.67" fill="#009dff" stroke="#989898" stroke-width="1" stroke-dasharray="4 4"></rect></g><svg width="45.27" height="47.67" viewBox="0 0 45.27 47.67"><g transform="translate(1, 1)"><text x="22.64" y="23.84" text-anchor="middle" dominant-baseline="middle" fill="#51e0cf" font-size="10">!!</text></g></svg></g><g transform="translate(316.89, 0)"><g><g><path d="M0,0 L0,47.67" stroke-width="1" stroke="#989898" stroke-dasharray="4 4"></path><path d="M45.27,0 L45.27,47.67" stroke-width="1" stroke="#989898" stroke-dasharray="4 4"></path><path d="M0,0 L45.27,0" stroke-width="1" stroke="#989898" stroke-dasharray="4 4"></path><path d="M0,47.67 L45.27,47.67" stroke-width="1" stroke="#989898" stroke-dasharray="4 4"></path></g></g><svg width="45.27" height="47.67" viewBox="0 0 45.27 47.67"><g transform="translate(1, 1)"><text x="22.64" y="23.84" text-anchor="middle" dominant-baseline="middle" fill="#000"></text></g></svg></g><g transform="translate(362.16, 0)"><g><g><path d="M0,0 L0,47.67" stroke-width="1" stroke="#989898" stroke-dasharray="4 4"></path><path d="M45.27,0 L45.27,47.67" stroke-width="1" stroke="#989898" stroke-dasharray="4 4"></path><path d="M0,0 L45.27,0" stroke-width="1" stroke="#989898" stroke-dasharray="4 4"></path><path d="M0,47.67 L45.27,47.67" stroke-width="1" stroke="#989898" stroke-dasharray="4 4"></path></g></g><svg width="45.27" height="47.67" viewBox="0 0 45.27 47.67"><g transform="translate(1, 1)"><svg width="43.27" height="45.67" viewBox="0 0 43.27 45.67" class="svg-table left-top-empty" style="overflow: visible;"><g class="filled-area left-top-empty-filled-area-behind-table"><g class="paths-on-area paths-on-area-for-filled-area"></g></g><g class="left-top-empty-content-area" transform="translate(0 0)"><g class="left-top-empty-row-0"><g transform="translate(0, 0)" class="left-top-empty-cell-wrapper"><g><g></g></g><svg width="21.14" height="22.34" viewBox="0 0 21.14 22.34"><g transform="translate(1, 1)"><text x="10.57" y="11.17" text-anchor="middle" dominant-baseline="middle" fill="#000"></text></g></svg></g><g transform="translate(22.14, 0)" class="left-top-empty-cell-wrapper"><g><rect width="21.14" height="22.34" fill="#ffae00" stroke="#000" stroke-width="0"></rect></g><svg width="21.14" height="22.34" viewBox="0 0 21.14 22.34" style="pointer-events: none;"><g transform="translate(1, 1)"><g transform="translate(0,0.5999999999999996)" style="font-size: 20.083px; color: rgba(255, 117, 86, 0.663);"><svg stroke="currentColor" fill="currentColor" stroke-width="0" viewBox="0 0 496 512" height="1em" width="1em" xmlns="http://www.w3.org/2000/svg"><path d="M248 8C111 8 0 119 0 256s111 248 248 248 248-111 248-248S385 8 248 8zm80 168c17.7 0 32 14.3 32 32s-14.3 32-32 32-32-14.3-32-32 14.3-32 32-32zm-160 0c17.7 0 32 14.3 32 32s-14.3 32-32 32-32-14.3-32-32 14.3-32 32-32zm194.8 170.2C334.3 380.4 292.5 400 248 400s-86.3-19.6-114.8-53.8c-13.6-16.3 11-36.7 24.6-20.5 22.4 26.9 55.2 42.2 90.2 42.2s67.8-15.4 90.2-42.2c13.4-16.2 38.1 4.2 24.6 20.5z"></path></svg></g></g></svg></g></g><g class="left-top-empty-row-1"><g transform="translate(0, 23.34)" class="left-top-empty-cell-wrapper"><g><rect width="21.14" height="22.34" fill="#33a100" stroke="#000" stroke-width="0"></rect></g><svg width="21.14" height="22.34" viewBox="0 0 21.14 22.34"><g transform="translate(1, 1)"><text x="10.57" y="11.17" text-anchor="middle" dominant-baseline="middle" fill="#000"></text></g></svg></g><g transform="translate(22.14, 23.34)" class="left-top-empty-cell-wrapper"><g><rect width="21.14" height="22.34" fill="#009dff" stroke="#000" stroke-width="0"></rect></g><svg width="21.14" height="22.34" viewBox="0 0 21.14 22.34"><g transform="translate(1, 1)"><text x="10.57" y="11.17" text-anchor="middle" dominant-baseline="middle" fill="#51e0cf" font-size="10">!!</text></g></svg></g></g></g></svg></g></svg></g><g transform="translate(407.43, 0)"><g><rect width="45.27" height="47.67" fill="#009dff" stroke="#989898" stroke-width="1" stroke-dasharray="4 4"></rect></g><svg width="45.27" height="47.67" viewBox="0 0 45.27 47.67"><g transform="translate(1, 1)"><text x="22.64" y="23.84" text-anchor="middle" dominant-baseline="middle" fill="#51e0cf" font-size="10">!!</text></g></svg></g><g transform="translate(452.7, 0)"><g><rect width="45.27" height="47.67" fill="#009dff" stroke="#989898" stroke-width="1" stroke-dasharray="4 4"></rect></g><svg width="45.27" height="47.67" viewBox="0 0 45.27 47.67"><g transform="translate(1, 1)"><text x="22.64" y="23.84" text-anchor="middle" dominant-baseline="middle" fill="#51e0cf" font-size="10">!!</text></g></svg></g></g><g><g transform="translate(0, 47.67)"><g><g><path d="M0,0 L0,47.67" stroke-width="1" stroke="#989898" stroke-dasharray="4 4"></path><path d="M45.27,0 L45.27,47.67" stroke-width="1" stroke="#989898" stroke-dasharray="4 4"></path><path d="M0,0 L45.27,0" stroke-width="1" stroke="#989898" stroke-dasharray="4 4"></path><path d="M0,47.67 L45.27,47.67" stroke-width="1" stroke="#989898" stroke-dasharray="4 4"></path></g></g><svg width="45.27" height="47.67" viewBox="0 0 45.27 47.67"><g transform="translate(1, 1)"><svg width="43.27" height="45.67" viewBox="0 0 43.27 45.67" class="svg-table left-bottom-empty" style="overflow: visible;"><g class="filled-area left-bottom-empty-filled-area-behind-table"><g class="paths-on-area paths-on-area-for-filled-area"></g></g><g class="left-bottom-empty-content-area" transform="translate(0 0)"><g class="left-bottom-empty-row-0"><g transform="translate(0, 0)" class="left-bottom-empty-cell-wrapper"><g><rect width="21.14" height="22.34" fill="#009dff" stroke="#000" stroke-width="0"></rect></g><svg width="21.14" height="22.34" viewBox="0 0 21.14 22.34"><g transform="translate(1, 1)"><text x="10.57" y="11.17" text-anchor="middle" dominant-baseline="middle" fill="#51e0cf" font-size="10">!!</text></g></svg></g><g transform="translate(22.14, 0)" class="left-bottom-empty-cell-wrapper"><g><rect width="21.14" height="22.34" fill="#33a100" stroke="#000" stroke-width="0"></rect></g><svg width="21.14" height="22.34" viewBox="0 0 21.14 22.34"><g transform="translate(1, 1)"><text x="10.57" y="11.17" text-anchor="middle" dominant-baseline="middle" fill="#000"></text></g></svg></g></g><g class="left-bottom-empty-row-1"><g transform="translate(0, 23.34)" class="left-bottom-empty-cell-wrapper"><g><g></g></g><svg width="21.14" height="22.34" viewBox="0 0 21.14 22.34"><g transform="translate(1, 1)"><text x="10.57" y="11.17" text-anchor="middle" dominant-baseline="middle" fill="#000"></text></g></svg></g><g transform="translate(22.14, 23.34)" class="left-bottom-empty-cell-wrapper"><g><rect width="21.14" height="22.34" fill="#ffae00" stroke="#000" stroke-width="0"></rect></g><svg width="21.14" height="22.34" viewBox="0 0 21.14 22.34" style="pointer-events: none;"><g transform="translate(1, 1)"><g transform="translate(0,0.5999999999999996)" style="font-size: 20.083px; color: rgba(255, 117, 86, 0.663);"><svg stroke="currentColor" fill="currentColor" stroke-width="0" viewBox="0 0 496 512" height="1em" width="1em" xmlns="http://www.w3.org/2000/svg"><path d="M248 8C111 8 0 119 0 256s111 248 248 248 248-111 248-248S385 8 248 8zm80 168c17.7 0 32 14.3 32 32s-14.3 32-32 32-32-14.3-32-32 14.3-32 32-32zm-160 0c17.7 0 32 14.3 32 32s-14.3 32-32 32-32-14.3-32-32 14.3-32 32-32zm194.8 170.2C334.3 380.4 292.5 400 248 400s-86.3-19.6-114.8-53.8c-13.6-16.3 11-36.7 24.6-20.5 22.4 26.9 55.2 42.2 90.2 42.2s67.8-15.4 90.2-42.2c13.4-16.2 38.1 4.2 24.6 20.5z"></path></svg></g></g></svg></g></g></g></svg></g></svg></g><g transform="translate(45.27, 47.67)"><g><rect width="45.27" height="47.67" fill="#009dff" stroke="#989898" stroke-width="1" stroke-dasharray="4 4"></rect></g><svg width="45.27" height="47.67" viewBox="0 0 45.27 47.67"><g transform="translate(1, 1)"><text x="22.64" y="23.84" text-anchor="middle" dominant-baseline="middle" fill="#51e0cf" font-size="10">!!</text></g></svg></g><g transform="translate(90.54, 47.67)"><g><g><path d="M0,0 L0,47.67" stroke-width="1" stroke="#989898" stroke-dasharray="4 4"></path><path d="M45.27,0 L45.27,47.67" stroke-width="1" stroke="#989898" stroke-dasharray="4 4"></path><path d="M0,0 L45.27,0" stroke-width="1" stroke="#989898" stroke-dasharray="4 4"></path><path d="M0,47.67 L45.27,47.67" stroke-width="1" stroke="#989898" stroke-dasharray="4 4"></path></g></g><svg width="45.27" height="47.67" viewBox="0 0 45.27 47.67"><g transform="translate(1, 1)"><svg width="43.27" height="45.67" viewBox="0 0 43.27 45.67" class="svg-table right-top-empty" style="overflow: visible;"><g class="filled-area right-top-empty-filled-area-behind-table"><g class="paths-on-area paths-on-area-for-filled-area"></g></g><g class="right-top-empty-content-area" transform="translate(0 0)"><g class="right-top-empty-row-0"><g transform="translate(0, 0)" class="right-top-empty-cell-wrapper"><g><rect width="21.14" height="22.34" fill="#009dff" stroke="#000" stroke-width="0"></rect></g><svg width="21.14" height="22.34" viewBox="0 0 21.14 22.34"><g transform="translate(1, 1)"><text x="10.57" y="11.17" text-anchor="middle" dominant-baseline="middle" fill="#51e0cf" font-size="10">!!</text></g></svg></g><g transform="translate(22.14, 0)" class="right-top-empty-cell-wrapper"><g><g></g></g><svg width="21.14" height="22.34" viewBox="0 0 21.14 22.34"><g transform="translate(1, 1)"><text x="10.57" y="11.17" text-anchor="middle" dominant-baseline="middle" fill="#000"></text></g></svg></g></g><g class="right-top-empty-row-1"><g transform="translate(0, 23.34)" class="right-top-empty-cell-wrapper"><g><rect width="21.14" height="22.34" fill="#ffae00" stroke="#000" stroke-width="0"></rect></g><svg width="21.14" height="22.34" viewBox="0 0 21.14 22.34" style="pointer-events: none;"><g transform="translate(1, 1)"><g transform="translate(0,0.5999999999999996)" style="font-size: 20.083px; color: rgba(255, 117, 86, 0.663);"><svg stroke="currentColor" fill="currentColor" stroke-width="0" viewBox="0 0 496 512" height="1em" width="1em" xmlns="http://www.w3.org/2000/svg"><path d="M248 8C111 8 0 119 0 256s111 248 248 248 248-111 248-248S385 8 248 8zm80 168c17.7 0 32 14.3 32 32s-14.3 32-32 32-32-14.3-32-32 14.3-32 32-32zm-160 0c17.7 0 32 14.3 32 32s-14.3 32-32 32-32-14.3-32-32 14.3-32 32-32zm194.8 170.2C334.3 380.4 292.5 400 248 400s-86.3-19.6-114.8-53.8c-13.6-16.3 11-36.7 24.6-20.5 22.4 26.9 55.2 42.2 90.2 42.2s67.8-15.4 90.2-42.2c13.4-16.2 38.1 4.2 24.6 20.5z"></path></svg></g></g></svg></g><g transform="translate(22.14, 23.34)" class="right-top-empty-cell-wrapper"><g><rect width="21.14" height="22.34" fill="#009dff" stroke="#000" stroke-width="0"></rect></g><svg width="21.14" height="22.34" viewBox="0 0 21.14 22.34"><g transform="translate(1, 1)"><text x="10.57" y="11.17" text-anchor="middle" dominant-baseline="middle" fill="#51e0cf" font-size="10">!!</text></g></svg></g></g></g></svg></g></svg></g><g transform="translate(135.81, 47.67)"><g><g><path d="M0,0 L0,47.67" stroke-width="1" stroke="#989898" stroke-dasharray="4 4"></path><path d="M45.27,0 L45.27,47.67" stroke-width="1" stroke="#989898" stroke-dasharray="4 4"></path><path d="M0,0 L45.27,0" stroke-width="1" stroke="#989898" stroke-dasharray="4 4"></path><path d="M0,47.67 L45.27,47.67" stroke-width="1" stroke="#989898" stroke-dasharray="4 4"></path></g></g><svg width="45.27" height="47.67" viewBox="0 0 45.27 47.67"><g transform="translate(1, 1)"><text x="22.64" y="23.84" text-anchor="middle" dominant-baseline="middle" fill="#000"></text></g></svg></g><g transform="translate(181.08, 47.67)"><g><g><path d="M0,0 L0,47.67" stroke-width="1" stroke="#989898" stroke-dasharray="4 4"></path><path d="M45.27,0 L45.27,47.67" stroke-width="1" stroke="#989898" stroke-dasharray="4 4"></path><path d="M0,0 L45.27,0" stroke-width="1" stroke="#989898" stroke-dasharray="4 4"></path><path d="M0,47.67 L45.27,47.67" stroke-width="1" stroke="#989898" stroke-dasharray="4 4"></path></g></g><svg width="45.27" height="47.67" viewBox="0 0 45.27 47.67"><g transform="translate(1, 1)"><svg width="43.27" height="45.67" viewBox="0 0 43.27 45.67" class="svg-table left-bottom-empty" style="overflow: visible;"><g class="filled-area left-bottom-empty-filled-area-behind-table"><g class="paths-on-area paths-on-area-for-filled-area"></g></g><g class="left-bottom-empty-content-area" transform="translate(0 0)"><g class="left-bottom-empty-row-0"><g transform="translate(0, 0)" class="left-bottom-empty-cell-wrapper"><g><rect width="21.14" height="22.34" fill="#009dff" stroke="#000" stroke-width="0"></rect></g><svg width="21.14" height="22.34" viewBox="0 0 21.14 22.34"><g transform="translate(1, 1)"><text x="10.57" y="11.17" text-anchor="middle" dominant-baseline="middle" fill="#51e0cf" font-size="10">!!</text></g></svg></g><g transform="translate(22.14, 0)" class="left-bottom-empty-cell-wrapper"><g><rect width="21.14" height="22.34" fill="#33a100" stroke="#000" stroke-width="0"></rect></g><svg width="21.14" height="22.34" viewBox="0 0 21.14 22.34"><g transform="translate(1, 1)"><text x="10.57" y="11.17" text-anchor="middle" dominant-baseline="middle" fill="#000"></text></g></svg></g></g><g class="left-bottom-empty-row-1"><g transform="translate(0, 23.34)" class="left-bottom-empty-cell-wrapper"><g><g></g></g><svg width="21.14" height="22.34" viewBox="0 0 21.14 22.34"><g transform="translate(1, 1)"><text x="10.57" y="11.17" text-anchor="middle" dominant-baseline="middle" fill="#000"></text></g></svg></g><g transform="translate(22.14, 23.34)" class="left-bottom-empty-cell-wrapper"><g><rect width="21.14" height="22.34" fill="#ffae00" stroke="#000" stroke-width="0"></rect></g><svg width="21.14" height="22.34" viewBox="0 0 21.14 22.34" style="pointer-events: none;"><g transform="translate(1, 1)"><g transform="translate(0,0.5999999999999996)" style="font-size: 20.083px; color: rgba(255, 117, 86, 0.663);"><svg stroke="currentColor" fill="currentColor" stroke-width="0" viewBox="0 0 496 512" height="1em" width="1em" xmlns="http://www.w3.org/2000/svg"><path d="M248 8C111 8 0 119 0 256s111 248 248 248 248-111 248-248S385 8 248 8zm80 168c17.7 0 32 14.3 32 32s-14.3 32-32 32-32-14.3-32-32 14.3-32 32-32zm-160 0c17.7 0 32 14.3 32 32s-14.3 32-32 32-32-14.3-32-32 14.3-32 32-32zm194.8 170.2C334.3 380.4 292.5 400 248 400s-86.3-19.6-114.8-53.8c-13.6-16.3 11-36.7 24.6-20.5 22.4 26.9 55.2 42.2 90.2 42.2s67.8-15.4 90.2-42.2c13.4-16.2 38.1 4.2 24.6 20.5z"></path></svg></g></g></svg></g></g></g></svg></g></svg></g><g transform="translate(226.35, 47.67)"><g><g><path d="M0,0 L0,47.67" stroke-width="1" stroke="#989898" stroke-dasharray="4 4"></path><path d="M45.27,0 L45.27,47.67" stroke-width="1" stroke="#989898" stroke-dasharray="4 4"></path><path d="M0,0 L45.27,0" stroke-width="1" stroke="#989898" stroke-dasharray="4 4"></path><path d="M0,47.67 L45.27,47.67" stroke-width="1" stroke="#989898" stroke-dasharray="4 4"></path></g></g><svg width="45.27" height="47.67" viewBox="0 0 45.27 47.67"><g transform="translate(1, 1)"><svg width="43.27" height="45.67" viewBox="0 0 43.27 45.67" class="svg-table middle-empty" style="overflow: visible;"><g class="filled-area middle-empty-filled-area-behind-table"><g class="paths-on-area paths-on-area-for-filled-area"></g></g><g class="middle-empty-content-area" transform="translate(0 0)"><g class="middle-empty-row-0"><g transform="translate(0, 0)" class="middle-empty-cell-wrapper"><g><rect width="13.76" height="45.67" fill="#ffae00" stroke="#000" stroke-width="0"></rect></g><svg width="13.76" height="45.67" viewBox="0 0 13.76 45.67" style="pointer-events: none;"><g transform="translate(1, 1)"><g transform="translate(0,15.96)" style="font-size: 13.072px; color: rgba(255, 117, 86, 0.663);"><svg stroke="currentColor" fill="currentColor" stroke-width="0" viewBox="0 0 496 512" height="1em" width="1em" xmlns="http://www.w3.org/2000/svg"><path d="M248 8C111 8 0 119 0 256s111 248 248 248 248-111 248-248S385 8 248 8zm80 168c17.7 0 32 14.3 32 32s-14.3 32-32 32-32-14.3-32-32 14.3-32 32-32zm-160 0c17.7 0 32 14.3 32 32s-14.3 32-32 32-32-14.3-32-32 14.3-32 32-32zm194.8 170.2C334.3 380.4 292.5 400 248 400s-86.3-19.6-114.8-53.8c-13.6-16.3 11-36.7 24.6-20.5 22.4 26.9 55.2 42.2 90.2 42.2s67.8-15.4 90.2-42.2c13.4-16.2 38.1 4.2 24.6 20.5z"></path></svg></g></g></svg></g><g transform="translate(14.76, 0)" class="middle-empty-cell-wrapper"><g><g></g></g><svg width="13.76" height="45.67" viewBox="0 0 13.76 45.67"><g transform="translate(1, 1)"><text x="6.88" y="22.84" text-anchor="middle" dominant-baseline="middle" fill="#000"></text></g></svg></g><g transform="translate(29.52, 0)" class="middle-empty-cell-wrapper"><g><rect width="13.76" height="45.67" fill="#009dff" stroke="#000" stroke-width="0"></rect></g><svg width="13.76" height="45.67" viewBox="0 0 13.76 45.67"><g transform="translate(1, 1)"><text x="6.88" y="22.84" text-anchor="middle" dominant-baseline="middle" fill="#51e0cf" font-size="10">!!</text></g></svg></g></g></g></svg></g></svg></g><g transform="translate(271.62, 47.67)"><g><g><path d="M0,0 L0,47.67" stroke-width="1" stroke="#989898" stroke-dasharray="4 4"></path><path d="M45.27,0 L45.27,47.67" stroke-width="1" stroke="#989898" stroke-dasharray="4 4"></path><path d="M0,0 L45.27,0" stroke-width="1" stroke="#989898" stroke-dasharray="4 4"></path><path d="M0,47.67 L45.27,47.67" stroke-width="1" stroke="#989898" stroke-dasharray="4 4"></path></g></g><svg width="45.27" height="47.67" viewBox="0 0 45.27 47.67"><g transform="translate(1, 1)"><svg width="43.27" height="45.67" viewBox="0 0 43.27 45.67" class="svg-table right-bottom-empty" style="overflow: visible;"><g class="filled-area right-bottom-empty-filled-area-behind-table"><g class="paths-on-area paths-on-area-for-filled-area"></g></g><g class="right-bottom-empty-content-area" transform="translate(0 0)"><g class="right-bottom-empty-row-0"><g transform="translate(0, 0)" class="right-bottom-empty-cell-wrapper"><g><rect width="21.14" height="22.34" fill="#009dff" stroke="#000" stroke-width="0"></rect></g><svg width="21.14" height="22.34" viewBox="0 0 21.14 22.34"><g transform="translate(1, 1)"><text x="10.57" y="11.17" text-anchor="middle" dominant-baseline="middle" fill="#51e0cf" font-size="10">!!</text></g></svg></g><g transform="translate(22.14, 0)" class="right-bottom-empty-cell-wrapper"><g><rect width="21.14" height="22.34" fill="#ffae00" stroke="#000" stroke-width="0"></rect></g><svg width="21.14" height="22.34" viewBox="0 0 21.14 22.34" style="pointer-events: none;"><g transform="translate(1, 1)"><g transform="translate(0,0.5999999999999996)" style="font-size: 20.083px; color: rgba(255, 117, 86, 0.663);"><svg stroke="currentColor" fill="currentColor" stroke-width="0" viewBox="0 0 496 512" height="1em" width="1em" xmlns="http://www.w3.org/2000/svg"><path d="M248 8C111 8 0 119 0 256s111 248 248 248 248-111 248-248S385 8 248 8zm80 168c17.7 0 32 14.3 32 32s-14.3 32-32 32-32-14.3-32-32 14.3-32 32-32zm-160 0c17.7 0 32 14.3 32 32s-14.3 32-32 32-32-14.3-32-32 14.3-32 32-32zm194.8 170.2C334.3 380.4 292.5 400 248 400s-86.3-19.6-114.8-53.8c-13.6-16.3 11-36.7 24.6-20.5 22.4 26.9 55.2 42.2 90.2 42.2s67.8-15.4 90.2-42.2c13.4-16.2 38.1 4.2 24.6 20.5z"></path></svg></g></g></svg></g></g><g class="right-bottom-empty-row-1"><g transform="translate(0, 23.34)" class="right-bottom-empty-cell-wrapper"><g><rect width="21.14" height="22.34" fill="#33a100" stroke="#000" stroke-width="0"></rect></g><svg width="21.14" height="22.34" viewBox="0 0 21.14 22.34"><g transform="translate(1, 1)"><text x="10.57" y="11.17" text-anchor="middle" dominant-baseline="middle" fill="#000"></text></g></svg></g><g transform="translate(22.14, 23.34)" class="right-bottom-empty-cell-wrapper"><g><g></g></g><svg width="21.14" height="22.34" viewBox="0 0 21.14 22.34"><g transform="translate(1, 1)"><text x="10.57" y="11.17" text-anchor="middle" dominant-baseline="middle" fill="#000"></text></g></svg></g></g></g></svg></g></svg></g><g transform="translate(316.89, 47.67)"><g><g><path d="M0,0 L0,47.67" stroke-width="1" stroke="#989898" stroke-dasharray="4 4"></path><path d="M45.27,0 L45.27,47.67" stroke-width="1" stroke="#989898" stroke-dasharray="4 4"></path><path d="M0,0 L45.27,0" stroke-width="1" stroke="#989898" stroke-dasharray="4 4"></path><path d="M0,47.67 L45.27,47.67" stroke-width="1" stroke="#989898" stroke-dasharray="4 4"></path></g></g><svg width="45.27" height="47.67" viewBox="0 0 45.27 47.67"><g transform="translate(1, 1)"><text x="22.64" y="23.84" text-anchor="middle" dominant-baseline="middle" fill="#000"></text></g></svg></g><g transform="translate(362.16, 47.67)"><g><rect width="45.27" height="47.67" fill="#009dff" stroke="#989898" stroke-width="1" stroke-dasharray="4 4"></rect></g><svg width="45.27" height="47.67" viewBox="0 0 45.27 47.67"><g transform="translate(1, 1)"><text x="22.64" y="23.84" text-anchor="middle" dominant-baseline="middle" fill="#51e0cf" font-size="10">!!</text></g></svg></g><g transform="translate(407.43, 47.67)"><g><g><path d="M0,0 L0,47.67" stroke-width="1" stroke="#989898" stroke-dasharray="4 4"></path><path d="M45.27,0 L45.27,47.67" stroke-width="1" stroke="#989898" stroke-dasharray="4 4"></path><path d="M0,0 L45.27,0" stroke-width="1" stroke="#989898" stroke-dasharray="4 4"></path><path d="M0,47.67 L45.27,47.67" stroke-width="1" stroke="#989898" stroke-dasharray="4 4"></path></g></g><svg width="45.27" height="47.67" viewBox="0 0 45.27 47.67"><g transform="translate(1, 1)"><text x="22.64" y="23.84" text-anchor="middle" dominant-baseline="middle" fill="#000"></text></g></svg></g><g transform="translate(452.7, 47.67)"><g><g><path d="M0,0 L0,47.67" stroke-width="1" stroke="#989898" stroke-dasharray="4 4"></path><path d="M45.27,0 L45.27,47.67" stroke-width="1" stroke="#989898" stroke-dasharray="4 4"></path><path d="M0,0 L45.27,0" stroke-width="1" stroke="#989898" stroke-dasharray="4 4"></path><path d="M0,47.67 L45.27,47.67" stroke-width="1" stroke="#989898" stroke-dasharray="4 4"></path></g></g><svg width="45.27" height="47.67" viewBox="0 0 45.27 47.67"><g transform="translate(1, 1)"><svg width="43.27" height="45.67" viewBox="0 0 43.27 45.67" class="svg-table bottom-fill" style="overflow: visible;"><g class="filled-area bottom-fill-filled-area-behind-table"><g class="paths-on-area paths-on-area-for-filled-area"></g></g><g class="bottom-fill-content-area" transform="translate(0 0)"><g class="bottom-fill-row-0"><g transform="translate(0, 0)" class="bottom-fill-cell-wrapper"><g><g></g></g><svg width="43.27" height="22.34" viewBox="0 0 43.27 22.34"><g transform="translate(1, 1)"><text x="21.64" y="11.17" text-anchor="middle" dominant-baseline="middle" fill="#000"></text></g></svg></g></g><g class="bottom-fill-row-1"><g transform="translate(0, 23.34)" class="bottom-fill-cell-wrapper"><g><rect width="43.27" height="22.34" fill="#33a100" stroke="#000" stroke-width="0"></rect></g><svg width="43.27" height="22.34" viewBox="0 0 43.27 22.34"><g transform="translate(1, 1)"><text x="21.64" y="11.17" text-anchor="middle" dominant-baseline="middle" fill="#000"></text></g></svg></g></g></g></svg></g></svg></g></g><g><g transform="translate(0, 95.34)"><g><g><path d="M0,0 L0,47.67" stroke-width="1" stroke="#989898" stroke-dasharray="4 4"></path><path d="M45.27,0 L45.27,47.67" stroke-width="1" stroke="#989898" stroke-dasharray="4 4"></path><path d="M0,0 L45.27,0" stroke-width="1" stroke="#989898" stroke-dasharray="4 4"></path><path d="M0,47.67 L45.27,47.67" stroke-width="1" stroke="#989898" stroke-dasharray="4 4"></path></g></g><svg width="45.27" height="47.67" viewBox="0 0 45.27 47.67"><g transform="translate(1, 1)"><svg width="43.27" height="45.67" viewBox="0 0 43.27 45.67" class="svg-table bottom-fill" style="overflow: visible;"><g class="filled-area bottom-fill-filled-area-behind-table"><g class="paths-on-area paths-on-area-for-filled-area"></g></g><g class="bottom-fill-content-area" transform="translate(0 0)"><g class="bottom-fill-row-0"><g transform="translate(0, 0)" class="bottom-fill-cell-wrapper"><g><g></g></g><svg width="43.27" height="22.34" viewBox="0 0 43.27 22.34"><g transform="translate(1, 1)"><text x="21.64" y="11.17" text-anchor="middle" dominant-baseline="middle" fill="#000"></text></g></svg></g></g><g class="bottom-fill-row-1"><g transform="translate(0, 23.34)" class="bottom-fill-cell-wrapper"><g><rect width="43.27" height="22.34" fill="#33a100" stroke="#000" stroke-width="0"></rect></g><svg width="43.27" height="22.34" viewBox="0 0 43.27 22.34"><g transform="translate(1, 1)"><text x="21.64" y="11.17" text-anchor="middle" dominant-baseline="middle" fill="#000"></text></g></svg></g></g></g></svg></g></svg></g><g transform="translate(45.27, 95.34)"><g><rect width="45.27" height="47.67" fill="#009dff" stroke="#989898" stroke-width="1" stroke-dasharray="4 4"></rect></g><svg width="45.27" height="47.67" viewBox="0 0 45.27 47.67"><g transform="translate(1, 1)"><text x="22.64" y="23.84" text-anchor="middle" dominant-baseline="middle" fill="#51e0cf" font-size="10">!!</text></g></svg></g><g transform="translate(90.54, 95.34)"><g><g><path d="M0,0 L0,47.67" stroke-width="1" stroke="#989898" stroke-dasharray="4 4"></path><path d="M45.27,0 L45.27,47.67" stroke-width="1" stroke="#989898" stroke-dasharray="4 4"></path><path d="M0,0 L45.27,0" stroke-width="1" stroke="#989898" stroke-dasharray="4 4"></path><path d="M0,47.67 L45.27,47.67" stroke-width="1" stroke="#989898" stroke-dasharray="4 4"></path></g></g><svg width="45.27" height="47.67" viewBox="0 0 45.27 47.67"><g transform="translate(1, 1)"><svg width="43.27" height="45.67" viewBox="0 0 43.27 45.67" class="svg-table right-bottom-empty" style="overflow: visible;"><g class="filled-area right-bottom-empty-filled-area-behind-table"><g class="paths-on-area paths-on-area-for-filled-area"></g></g><g class="right-bottom-empty-content-area" transform="translate(0 0)"><g class="right-bottom-empty-row-0"><g transform="translate(0, 0)" class="right-bottom-empty-cell-wrapper"><g><rect width="21.14" height="22.34" fill="#009dff" stroke="#000" stroke-width="0"></rect></g><svg width="21.14" height="22.34" viewBox="0 0 21.14 22.34"><g transform="translate(1, 1)"><text x="10.57" y="11.17" text-anchor="middle" dominant-baseline="middle" fill="#51e0cf" font-size="10">!!</text></g></svg></g><g transform="translate(22.14, 0)" class="right-bottom-empty-cell-wrapper"><g><rect width="21.14" height="22.34" fill="#ffae00" stroke="#000" stroke-width="0"></rect></g><svg width="21.14" height="22.34" viewBox="0 0 21.14 22.34" style="pointer-events: none;"><g transform="translate(1, 1)"><g transform="translate(0,0.5999999999999996)" style="font-size: 20.083px; color: rgba(255, 117, 86, 0.663);"><svg stroke="currentColor" fill="currentColor" stroke-width="0" viewBox="0 0 496 512" height="1em" width="1em" xmlns="http://www.w3.org/2000/svg"><path d="M248 8C111 8 0 119 0 256s111 248 248 248 248-111 248-248S385 8 248 8zm80 168c17.7 0 32 14.3 32 32s-14.3 32-32 32-32-14.3-32-32 14.3-32 32-32zm-160 0c17.7 0 32 14.3 32 32s-14.3 32-32 32-32-14.3-32-32 14.3-32 32-32zm194.8 170.2C334.3 380.4 292.5 400 248 400s-86.3-19.6-114.8-53.8c-13.6-16.3 11-36.7 24.6-20.5 22.4 26.9 55.2 42.2 90.2 42.2s67.8-15.4 90.2-42.2c13.4-16.2 38.1 4.2 24.6 20.5z"></path></svg></g></g></svg></g></g><g class="right-bottom-empty-row-1"><g transform="translate(0, 23.34)" class="right-bottom-empty-cell-wrapper"><g><rect width="21.14" height="22.34" fill="#33a100" stroke="#000" stroke-width="0"></rect></g><svg width="21.14" height="22.34" viewBox="0 0 21.14 22.34"><g transform="translate(1, 1)"><text x="10.57" y="11.17" text-anchor="middle" dominant-baseline="middle" fill="#000"></text></g></svg></g><g transform="translate(22.14, 23.34)" class="right-bottom-empty-cell-wrapper"><g><g></g></g><svg width="21.14" height="22.34" viewBox="0 0 21.14 22.34"><g transform="translate(1, 1)"><text x="10.57" y="11.17" text-anchor="middle" dominant-baseline="middle" fill="#000"></text></g></svg></g></g></g></svg></g></svg></g><g transform="translate(135.81, 95.34)"><g><g><path d="M0,0 L0,47.67" stroke-width="1" stroke="#989898" stroke-dasharray="4 4"></path><path d="M45.27,0 L45.27,47.67" stroke-width="1" stroke="#989898" stroke-dasharray="4 4"></path><path d="M0,0 L45.27,0" stroke-width="1" stroke="#989898" stroke-dasharray="4 4"></path><path d="M0,47.67 L45.27,47.67" stroke-width="1" stroke="#989898" stroke-dasharray="4 4"></path></g></g><svg width="45.27" height="47.67" viewBox="0 0 45.27 47.67"><g transform="translate(1, 1)"><text x="22.64" y="23.84" text-anchor="middle" dominant-baseline="middle" fill="#000"></text></g></svg></g><g transform="translate(181.08, 95.34)"><g><g><path d="M0,0 L0,47.67" stroke-width="1" stroke="#989898" stroke-dasharray="4 4"></path><path d="M45.27,0 L45.27,47.67" stroke-width="1" stroke="#989898" stroke-dasharray="4 4"></path><path d="M0,0 L45.27,0" stroke-width="1" stroke="#989898" stroke-dasharray="4 4"></path><path d="M0,47.67 L45.27,47.67" stroke-width="1" stroke="#989898" stroke-dasharray="4 4"></path></g></g><svg width="45.27" height="47.67" viewBox="0 0 45.27 47.67"><g transform="translate(1, 1)"><text x="22.64" y="23.84" text-anchor="middle" dominant-baseline="middle" fill="#000"></text></g></svg></g><g transform="translate(226.35, 95.34)"><g><rect width="45.27" height="47.67" fill="#ffae00" stroke="#989898" stroke-width="1" stroke-dasharray="4 4"></rect></g><svg width="45.27" height="47.67" viewBox="0 0 45.27 47.67" style="pointer-events: none;"><g transform="translate(1, 1)"><g transform="translate(0.004999999999999005,1.2049999999999983)" style="font-size: 43.0065px; color: rgba(255, 117, 86, 0.663);"><svg stroke="currentColor" fill="currentColor" stroke-width="0" viewBox="0 0 496 512" height="1em" width="1em" xmlns="http://www.w3.org/2000/svg"><path d="M248 8C111 8 0 119 0 256s111 248 248 248 248-111 248-248S385 8 248 8zm80 168c17.7 0 32 14.3 32 32s-14.3 32-32 32-32-14.3-32-32 14.3-32 32-32zm-160 0c17.7 0 32 14.3 32 32s-14.3 32-32 32-32-14.3-32-32 14.3-32 32-32zm194.8 170.2C334.3 380.4 292.5 400 248 400s-86.3-19.6-114.8-53.8c-13.6-16.3 11-36.7 24.6-20.5 22.4 26.9 55.2 42.2 90.2 42.2s67.8-15.4 90.2-42.2c13.4-16.2 38.1 4.2 24.6 20.5z"></path></svg></g></g></svg></g><g transform="translate(271.62, 95.34)"><g><g><path d="M0,0 L0,47.67" stroke-width="1" stroke="#989898" stroke-dasharray="4 4"></path><path d="M45.27,0 L45.27,47.67" stroke-width="1" stroke="#989898" stroke-dasharray="4 4"></path><path d="M0,0 L45.27,0" stroke-width="1" stroke="#989898" stroke-dasharray="4 4"></path><path d="M0,47.67 L45.27,47.67" stroke-width="1" stroke="#989898" stroke-dasharray="4 4"></path></g></g><svg width="45.27" height="47.67" viewBox="0 0 45.27 47.67"><g transform="translate(1, 1)"><text x="22.64" y="23.84" text-anchor="middle" dominant-baseline="middle" fill="#000"></text></g></svg></g><g transform="translate(316.89, 95.34)"><g><g><path d="M0,0 L0,47.67" stroke-width="1" stroke="#989898" stroke-dasharray="4 4"></path><path d="M45.27,0 L45.27,47.67" stroke-width="1" stroke="#989898" stroke-dasharray="4 4"></path><path d="M0,0 L45.27,0" stroke-width="1" stroke="#989898" stroke-dasharray="4 4"></path><path d="M0,47.67 L45.27,47.67" stroke-width="1" stroke="#989898" stroke-dasharray="4 4"></path></g></g><svg width="45.27" height="47.67" viewBox="0 0 45.27 47.67"><g transform="translate(1, 1)"><text x="22.64" y="23.84" text-anchor="middle" dominant-baseline="middle" fill="#000"></text></g></svg></g><g transform="translate(362.16, 95.34)"><g><g><path d="M0,0 L0,47.67" stroke-width="1" stroke="#989898" stroke-dasharray="4 4"></path><path d="M45.27,0 L45.27,47.67" stroke-width="1" stroke="#989898" stroke-dasharray="4 4"></path><path d="M0,0 L45.27,0" stroke-width="1" stroke="#989898" stroke-dasharray="4 4"></path><path d="M0,47.67 L45.27,47.67" stroke-width="1" stroke="#989898" stroke-dasharray="4 4"></path></g></g><svg width="45.27" height="47.67" viewBox="0 0 45.27 47.67"><g transform="translate(1, 1)"><svg width="43.27" height="45.67" viewBox="0 0 43.27 45.67" class="svg-table left-bottom-empty" style="overflow: visible;"><g class="filled-area left-bottom-empty-filled-area-behind-table"><g class="paths-on-area paths-on-area-for-filled-area"></g></g><g class="left-bottom-empty-content-area" transform="translate(0 0)"><g class="left-bottom-empty-row-0"><g transform="translate(0, 0)" class="left-bottom-empty-cell-wrapper"><g><rect width="21.14" height="22.34" fill="#009dff" stroke="#000" stroke-width="0"></rect></g><svg width="21.14" height="22.34" viewBox="0 0 21.14 22.34"><g transform="translate(1, 1)"><text x="10.57" y="11.17" text-anchor="middle" dominant-baseline="middle" fill="#51e0cf" font-size="10">!!</text></g></svg></g><g transform="translate(22.14, 0)" class="left-bottom-empty-cell-wrapper"><g><rect width="21.14" height="22.34" fill="#33a100" stroke="#000" stroke-width="0"></rect></g><svg width="21.14" height="22.34" viewBox="0 0 21.14 22.34"><g transform="translate(1, 1)"><text x="10.57" y="11.17" text-anchor="middle" dominant-baseline="middle" fill="#000"></text></g></svg></g></g><g class="left-bottom-empty-row-1"><g transform="translate(0, 23.34)" class="left-bottom-empty-cell-wrapper"><g><g></g></g><svg width="21.14" height="22.34" viewBox="0 0 21.14 22.34"><g transform="translate(1, 1)"><text x="10.57" y="11.17" text-anchor="middle" dominant-baseline="middle" fill="#000"></text></g></svg></g><g transform="translate(22.14, 23.34)" class="left-bottom-empty-cell-wrapper"><g><rect width="21.14" height="22.34" fill="#ffae00" stroke="#000" stroke-width="0"></rect></g><svg width="21.14" height="22.34" viewBox="0 0 21.14 22.34" style="pointer-events: none;"><g transform="translate(1, 1)"><g transform="translate(0,0.5999999999999996)" style="font-size: 20.083px; color: rgba(255, 117, 86, 0.663);"><svg stroke="currentColor" fill="currentColor" stroke-width="0" viewBox="0 0 496 512" height="1em" width="1em" xmlns="http://www.w3.org/2000/svg"><path d="M248 8C111 8 0 119 0 256s111 248 248 248 248-111 248-248S385 8 248 8zm80 168c17.7 0 32 14.3 32 32s-14.3 32-32 32-32-14.3-32-32 14.3-32 32-32zm-160 0c17.7 0 32 14.3 32 32s-14.3 32-32 32-32-14.3-32-32 14.3-32 32-32zm194.8 170.2C334.3 380.4 292.5 400 248 400s-86.3-19.6-114.8-53.8c-13.6-16.3 11-36.7 24.6-20.5 22.4 26.9 55.2 42.2 90.2 42.2s67.8-15.4 90.2-42.2c13.4-16.2 38.1 4.2 24.6 20.5z"></path></svg></g></g></svg></g></g></g></svg></g></svg></g><g transform="translate(407.43, 95.34)"><g><rect width="45.27" height="47.67" fill="#009dff" stroke="#989898" stroke-width="1" stroke-dasharray="4 4"></rect></g><svg width="45.27" height="47.67" viewBox="0 0 45.27 47.67"><g transform="translate(1, 1)"><text x="22.64" y="23.84" text-anchor="middle" dominant-baseline="middle" fill="#51e0cf" font-size="10">!!</text></g></svg></g><g transform="translate(452.7, 95.34)"><g><rect width="45.27" height="47.67" fill="#009dff" stroke="#989898" stroke-width="1" stroke-dasharray="4 4"></rect></g><svg width="45.27" height="47.67" viewBox="0 0 45.27 47.67"><g transform="translate(1, 1)"><text x="22.64" y="23.84" text-anchor="middle" dominant-baseline="middle" fill="#51e0cf" font-size="10">!!</text></g></svg></g></g></g></svg>