<svg xmlns="http://www.w3.org/2000/svg" xmlns:xlink="http://www.w3.org/1999/xlink" style="overflow:visible" viewBox="0 0 700 90"><g><g></g></g><g transform="translate(0 0)"><g><g transform="translate(0, 0)"><g><g><path d="M0,0 L0,30" stroke-width="1" stroke="var(--line-default-stroke, #000)"></path><path d="M233.33,0 L233.33,30" stroke-width="1" stroke="var(--line-default-stroke, #000)"></path><path d="M0,0 L233.33,0" stroke-width="1" stroke="var(--line-default-stroke, #000)"></path><path d="M0,30 L233.33,30" stroke-width="1" stroke="var(--line-default-stroke, #000)"></path></g></g><svg width="233.33" height="30" viewBox="0 0 233.33 30"><g transform="translate(1, 1)"><g transform="translate(116.67,15)"><g transform="translate(-116.67,-15)"><text x="116.67" y="15" text-anchor="middle" dominant-baseline="middle" fill="var(--text-default-color, #000)">Header 1</text></g></g></g></svg></g><g transform="translate(233.33, 0)"><g><g><path d="M0,0 L0,30" stroke-width="1" stroke="var(--line-default-stroke, #000)"></path><path d="M466.66,0 L466.66,30" stroke-width="1" stroke="var(--line-default-stroke, #000)"></path><path d="M0,0 L466.66,0" stroke-width="1" stroke="var(--line-default-stroke, #000)"></path><path d="M0,30 L466.66,30" stroke-width="1" stroke="var(--line-default-stroke, #000)"></path></g></g><svg width="466.66" height="30" viewBox="0 0 466.66 30"><g transform="translate(1, 1)"><g transform="translate(233.33,15)"><g transform="translate(-233.33,-15)"><text x="233.33" y="15" text-anchor="middle" dominant-baseline="middle" fill="var(--text-default-color, #000)">Col Span</text></g></g></g></svg></g></g><g><g transform="translate(0, 30)"><g><g><path d="M0,0 L0,30" stroke-width="1" stroke="var(--line-default-stroke, #000)"></path><path d="M233.33,0 L233.33,30" stroke-width="1" stroke="var(--line-default-stroke, #000)"></path><path d="M0,0 L233.33,0" stroke-width="1" stroke="var(--line-default-stroke, #000)"></path><path d="M0,30 L233.33,30" stroke-width="1" stroke="var(--line-default-stroke, #000)"></path></g></g><svg width="233.33" height="30" viewBox="0 0 233.33 30"><g transform="translate(1, 1)"><g transform="translate(116.67,15)"><g transform="translate(-116.67,-15)"><text x="116.67" y="15" text-anchor="middle" dominant-baseline="middle" fill="var(--text-default-color, #000)">Row 1, Cell 1</text></g></g></g></svg></g><g transform="translate(233.33, 30)"><g><g><path d="M0,0 L0,60" stroke-width="1" stroke="var(--line-default-stroke, #000)"></path><path d="M233.33,0 L233.33,60" stroke-width="1" stroke="var(--line-default-stroke, #000)"></path><path d="M0,0 L233.33,0" stroke-width="1" stroke="var(--line-default-stroke, #000)"></path><path d="M0,60 L233.33,60" stroke-width="1" stroke="var(--line-default-stroke, #000)"></path></g></g><svg width="233.33" height="60" viewBox="0 0 233.33 60"><g transform="translate(1, 1)"><g transform="translate(116.67,30)"><g transform="translate(-116.67,-30)"><text x="116.67" y="14" text-anchor="middle" dominant-baseline="middle" fill="var(--text-default-color, #000)"><tspan x="116.665" dy="0">Row Span</tspan><tspan x="116.665" dy="16">multiline</tspan><tspan x="116.665" dy="16">support</tspan></text></g></g></g></svg></g><g transform="translate(466.66, 30)"><g><g><path d="M0,0 L0,30" stroke-width="1" stroke="var(--line-default-stroke, #000)"></path><path d="M233.33,0 L233.33,30" stroke-width="1" stroke="var(--line-default-stroke, #000)"></path><path d="M0,0 L233.33,0" stroke-width="1" stroke="var(--line-default-stroke, #000)"></path><path d="M0,30 L233.33,30" stroke-width="1" stroke="var(--line-default-stroke, #000)"></path></g></g><svg width="233.33" height="30" viewBox="0 0 233.33 30"><g transform="translate(1, 1)"><g transform="translate(116.67,15)"><g transform="translate(-116.67,-15)"><text x="116.67" y="15" text-anchor="middle" dominant-baseline="middle" fill="var(--text-default-color, #000)">Row 1, Cell 3</text></g></g></g></svg></g></g><g><g transform="translate(0, 60)"><g><g><path d="M0,0 L0,30" stroke-width="1" stroke="var(--line-default-stroke, #000)"></path><path d="M233.33,0 L233.33,30" stroke-width="1" stroke="var(--line-default-stroke, #000)"></path><path d="M0,0 L233.33,0" stroke-width="1" stroke="var(--line-default-stroke, #000)"></path><path d="M0,30 L233.33,30" stroke-width="1" stroke="var(--line-default-stroke, #000)"></path></g></g><svg width="233.33" height="30" viewBox="0 0 233.33 30"><g transform="translate(1, 1)"><g transform="translate(116.67,15)"><g transform="translate(-116.67,-15)"><text x="116.67" y="15" text-anchor="middle" dominant-baseline="middle" fill="var(--text-default-color, #000)">Row 2, Cell 1</text></g></g></g></svg></g><g transform="translate(466.66, 60)"><g><g><path d="M0,0 L0,30" stroke-width="1" stroke="var(--line-default-stroke, #000)"></path><path d="M233.33,0 L233.33,30" stroke-width="1" stroke="var(--line-default-stroke, #000)"></path><path d="M0,0 L233.33,0" stroke-width="1" stroke="var(--line-default-stroke, #000)"></path><path d="M0,30 L233.33,30" stroke-width="1" stroke="var(--line-default-stroke, #000)"></path></g></g><svg width="233.33" height="30" viewBox="0 0 233.33 30"><g transform="translate(1, 1)"><g transform="translate(116.67,15)"><g transform="translate(-116.67,-15)"><text x="116.67" y="15" text-anchor="middle" dominant-baseline="middle" fill="var(--text-default-color, #000)">Row 2, Cell 3</text></g></g></g></svg></g></g></g></svg>